# Blender v2.93.2 OBJ File: ''
# www.blender.org
mtllib pacman.mtl
o Sphere
v 0.267745 -0.654456 -0.707107
v 0.349826 -0.855088 -0.382683
v 0.349826 -0.855088 0.382683
v 0.144903 -0.354189 0.923880
v 0.269415 -0.271776 -0.923880
v 0.497814 -0.502177 -0.707107
v 0.650425 -0.656126 -0.382683
v 0.704015 -0.710185 0.000000
v 0.650425 -0.656126 0.382683
v 0.497814 -0.502177 0.707107
v 0.269415 -0.271776 0.923880
v 0.352911 -0.147988 -0.923880
v 0.652095 -0.273446 -0.707107
v 0.852003 -0.357274 -0.382683
v 0.922201 -0.386711 0.000000
v 0.852003 -0.357274 0.382683
v 0.652095 -0.273446 0.707107
v 0.352911 -0.147988 0.923880
v 0.354189 0.144903 -0.923880
v 0.654456 0.267745 -0.707107
v 0.855088 0.349826 -0.382683
v 0.925540 0.378649 0.000000
v 0.855088 0.349826 0.382683
v 0.654456 0.267745 0.707107
v 0.354189 0.144903 0.923880
v 0.271776 0.269415 -0.923880
v 0.502177 0.497814 -0.707107
v 0.656126 0.650425 -0.382683
v 0.710185 0.704015 0.000000
v 0.656126 0.650425 0.382683
v 0.502177 0.497814 0.707107
v 0.271776 0.269415 0.923880
v 0.147988 0.352911 -0.923880
v 0.273446 0.652095 -0.707107
v 0.357274 0.852003 -0.382683
v 0.386711 0.922201 0.000000
v 0.357274 0.852003 0.382683
v 0.273446 0.652095 0.707107
v 0.147988 0.352911 0.923880
v 0.001670 0.382680 -0.923880
v 0.003085 0.707100 -0.707107
v 0.004031 0.923871 -0.382683
v 0.004363 0.999991 0.000000
v 0.004031 0.923871 0.382683
v 0.003085 0.707100 0.707107
v 0.001670 0.382680 0.923880
v -0.000000 0.000000 -1.000000
v -0.144903 0.354189 -0.923880
v -0.267745 0.654456 -0.707107
v -0.349826 0.855088 -0.382683
v -0.378649 0.925541 0.000000
v -0.349826 0.855088 0.382683
v -0.267745 0.654456 0.707107
v -0.144903 0.354189 0.923880
v -0.269415 0.271776 -0.923880
v -0.497814 0.502177 -0.707107
v -0.650425 0.656126 -0.382683
v -0.704015 0.710185 0.000000
v -0.650425 0.656126 0.382683
v -0.497814 0.502177 0.707107
v -0.269415 0.271776 0.923880
v -0.352911 0.147988 -0.923880
v -0.652095 0.273446 -0.707107
v -0.852003 0.357274 -0.382683
v -0.922201 0.386711 0.000000
v -0.852003 0.357274 0.382683
v -0.652095 0.273446 0.707107
v -0.352911 0.147988 0.923880
v -0.000000 0.000000 1.000000
v -0.382680 0.001670 -0.923880
v -0.707100 0.003085 -0.707107
v -0.923871 0.004031 -0.382683
v -0.999990 0.004363 0.000000
v -0.923871 0.004031 0.382683
v -0.707100 0.003085 0.707107
v -0.382680 0.001670 0.923880
v -0.354189 -0.144903 -0.923880
v -0.654456 -0.267745 -0.707107
v -0.855088 -0.349826 -0.382683
v -0.925540 -0.378649 -0.000000
v -0.855088 -0.349826 0.382683
v -0.654456 -0.267745 0.707107
v -0.354189 -0.144903 0.923880
v -0.271776 -0.269415 -0.923880
v -0.502177 -0.497814 -0.707107
v -0.656125 -0.650425 -0.382683
v -0.710185 -0.704015 -0.000000
v -0.656125 -0.650425 0.382683
v -0.502177 -0.497814 0.707107
v -0.271776 -0.269415 0.923880
v -0.147988 -0.352911 -0.923880
v -0.273446 -0.652094 -0.707107
v -0.357274 -0.852002 -0.382683
v -0.386710 -0.922201 -0.000000
v -0.357274 -0.852002 0.382683
v -0.273446 -0.652095 0.707107
v -0.147988 -0.352911 0.923880
v -0.001670 -0.382680 -0.923880
v -0.003085 -0.707100 -0.707107
v -0.004031 -0.923870 -0.382683
v -0.004363 -0.999990 -0.000000
v -0.004031 -0.923870 0.382683
v -0.003085 -0.707100 0.707107
v -0.001670 -0.382680 0.923880
v 0.144903 -0.354189 -0.923880
v 0.378649 -0.925540 -0.000000
v 0.267745 -0.654456 0.707107
v 0.654456 0.267745 0.000000
v 0.354189 0.144903 0.000000
v -0.000000 0.000000 0.000000
v 0.652095 -0.273446 -0.000000
v 0.352911 -0.147988 -0.000000
vt 0.275808 0.529968
vt 0.334272 0.529968
vt 0.334272 0.696460
vt 0.275808 0.657395
vt 0.403235 0.529968
vt 0.403235 0.710177
vt 0.275808 0.402541
vt 0.223026 0.529968
vt 0.236744 0.461005
vt 0.334272 0.363477
vt 0.403235 0.349759
vt 0.153407 0.363477
vt 0.153407 0.529968
vt 0.094943 0.529968
vt 0.094943 0.402541
vt 0.236744 0.598931
vt 0.042161 0.529968
vt 0.055879 0.461005
vt 0.222370 0.349759
vt 0.222370 0.529968
vt 0.094943 0.657395
vt 0.055879 0.598931
vt 0.222370 0.710177
vt 0.153407 0.696460
vt 0.947996 0.268770
vt 0.947996 0.339084
vt 0.877733 0.336408
vt 0.883081 0.266297
vt 0.942647 0.409194
vt 0.932371 0.478753
vt 0.882688 0.476861
vt 0.877733 0.406722
vt 0.918333 0.547652
vt 0.902262 0.616105
vt 0.891445 0.546628
vt 0.923466 0.059387
vt 0.934284 0.128864
vt 0.907395 0.127840
vt 0.943040 0.198630
vt 0.893357 0.196738
vt 0.710710 0.616105
vt 0.694638 0.547652
vt 0.721527 0.546628
vt 0.680600 0.478754
vt 0.670324 0.409194
vt 0.735239 0.406722
vt 0.730284 0.476861
vt 0.664976 0.339084
vt 0.664976 0.268770
vt 0.729891 0.266297
vt 0.735239 0.336408
vt 0.669931 0.198630
vt 0.678688 0.128864
vt 0.705576 0.127840
vt 0.719615 0.196738
vt 0.689505 0.059387
vt 0.817261 0.892937
vt 0.806444 0.962414
vt 0.790372 0.893961
vt 0.785239 0.405696
vt 0.801310 0.474149
vt 0.774422 0.475173
vt 0.815349 0.543047
vt 0.825625 0.612607
vt 0.760710 0.615079
vt 0.765665 0.544940
vt 0.830973 0.682717
vt 0.830973 0.753031
vt 0.766058 0.755504
vt 0.760710 0.685393
vt 0.826018 0.823170
vt 0.776334 0.825063
vt 0.716383 0.508283
vt 0.706107 0.438724
vt 0.771021 0.436251
vt 0.766066 0.506391
vt 0.700758 0.368613
vt 0.700758 0.298299
vt 0.765673 0.295827
vt 0.771021 0.365937
vt 0.705713 0.228160
vt 0.714470 0.158393
vt 0.741359 0.157369
vt 0.755397 0.226268
vt 0.730421 0.577181
vt 0.757309 0.576157
vt 0.725288 0.088916
vt 0.746492 0.645634
vt 0.588583 0.577181
vt 0.574545 0.508283
vt 0.624228 0.506391
vt 0.615472 0.576157
vt 0.564269 0.438724
vt 0.558920 0.368613
vt 0.629184 0.365937
vt 0.629184 0.436251
vt 0.558920 0.298299
vt 0.563875 0.228160
vt 0.613559 0.226268
vt 0.623835 0.295827
vt 0.572632 0.158393
vt 0.583450 0.088916
vt 0.599521 0.157369
vt 0.604654 0.645634
vt 0.800810 0.266297
vt 0.806158 0.336408
vt 0.735895 0.339084
vt 0.735895 0.268770
vt 0.806158 0.406722
vt 0.801203 0.476861
vt 0.751519 0.478753
vt 0.741243 0.409194
vt 0.792446 0.546628
vt 0.781628 0.616105
vt 0.765557 0.547652
vt 0.760424 0.059387
vt 0.776495 0.127840
vt 0.749607 0.128864
vt 0.790534 0.196738
vt 0.740850 0.198630
vt 0.831343 0.059387
vt 0.847414 0.127839
vt 0.820526 0.128864
vt 0.861452 0.196738
vt 0.871728 0.266297
vt 0.806814 0.268770
vt 0.811769 0.198630
vt 0.877077 0.336408
vt 0.877077 0.406722
vt 0.812162 0.409194
vt 0.806814 0.339084
vt 0.872122 0.476861
vt 0.863365 0.546628
vt 0.836476 0.547652
vt 0.822438 0.478753
vt 0.852547 0.616105
vt 0.654009 0.655864
vt 0.654009 0.585550
vt 0.718923 0.583077
vt 0.724272 0.653188
vt 0.658964 0.515410
vt 0.667721 0.445644
vt 0.694609 0.444620
vt 0.708647 0.513518
vt 0.683671 0.864432
vt 0.669633 0.795533
vt 0.719317 0.793641
vt 0.710560 0.863408
vt 0.659357 0.725974
vt 0.724272 0.723502
vt 0.678538 0.376167
vt 0.699742 0.932885
vt 0.812278 0.157369
vt 0.826316 0.226267
vt 0.776632 0.228160
vt 0.785389 0.158393
vt 0.836592 0.295827
vt 0.841940 0.365937
vt 0.771677 0.368613
vt 0.771677 0.298299
vt 0.841940 0.436251
vt 0.836985 0.506390
vt 0.787302 0.508283
vt 0.777026 0.438724
vt 0.828228 0.576157
vt 0.817411 0.645634
vt 0.801340 0.577181
vt 0.796207 0.088916
vt 0.901892 0.753031
vt 0.896937 0.823170
vt 0.847253 0.825063
vt 0.836977 0.755504
vt 0.888180 0.892937
vt 0.877362 0.962414
vt 0.861291 0.893961
vt 0.856158 0.405696
vt 0.872229 0.474149
vt 0.845341 0.475173
vt 0.886267 0.543047
vt 0.896543 0.612606
vt 0.831629 0.615079
vt 0.836584 0.544940
vt 0.901892 0.682717
vt 0.831629 0.685393
vt 0.820376 0.376167
vt 0.836447 0.444620
vt 0.809558 0.445644
vt 0.850485 0.513518
vt 0.860761 0.583077
vt 0.795846 0.585550
vt 0.800801 0.515410
vt 0.866109 0.653188
vt 0.866109 0.723502
vt 0.801195 0.725974
vt 0.795846 0.655864
vt 0.861154 0.793641
vt 0.852398 0.863408
vt 0.825509 0.864432
vt 0.811471 0.795533
vt 0.841580 0.932885
vt 0.684478 0.508283
vt 0.670440 0.577181
vt 0.643551 0.576157
vt 0.634794 0.506390
vt 0.686390 0.158393
vt 0.695147 0.228160
vt 0.645464 0.226267
vt 0.659502 0.157369
vt 0.700102 0.298299
vt 0.700102 0.368613
vt 0.629839 0.365937
vt 0.635188 0.295827
vt 0.694754 0.438724
vt 0.629839 0.436251
vt 0.654369 0.645634
vt 0.675573 0.088916
vt 0.765528 0.444620
vt 0.779566 0.513518
vt 0.729883 0.515410
vt 0.738639 0.445644
vt 0.789842 0.583077
vt 0.795191 0.653188
vt 0.724927 0.655864
vt 0.724927 0.585550
vt 0.795191 0.723502
vt 0.790235 0.793641
vt 0.740552 0.795533
vt 0.730276 0.725974
vt 0.781479 0.863408
vt 0.770661 0.932885
vt 0.754590 0.864432
vt 0.749457 0.376167
vt 0.883196 0.577181
vt 0.867125 0.645634
vt 0.856308 0.576157
vt 0.888330 0.088916
vt 0.899147 0.158393
vt 0.872259 0.157369
vt 0.907904 0.228160
vt 0.912859 0.298299
vt 0.847945 0.295827
vt 0.858221 0.226267
vt 0.912859 0.368613
vt 0.907511 0.438724
vt 0.842596 0.436251
vt 0.842596 0.365937
vt 0.897235 0.508283
vt 0.847551 0.506390
vn 0.3786 -0.9255 -0.0000
vn 0.3867 0.9222 0.0000
vn 0.3511 -0.8582 0.3743
vn 0.7040 -0.7102 0.0000
vn 0.6528 -0.6585 0.3743
vn 0.3511 -0.8582 -0.3743
vn 0.2722 -0.6653 -0.6952
vn 0.5061 -0.5105 -0.6952
vn 0.6528 -0.6585 -0.3743
vn 0.1526 -0.3731 -0.9152
vn 0.1682 -0.0007 -0.9857
vn 0.2838 -0.2863 -0.9152
vn 0.1682 -0.0007 0.9857
vn 0.1526 -0.3731 0.9152
vn 0.2838 -0.2863 0.9152
vn 0.2722 -0.6653 0.6952
vn 0.5061 -0.5105 0.6952
vn 0.5328 0.4659 0.7064
vn 0.9170 0.2622 0.3005
vn 0.7609 0.3446 0.5497
vn 0.9170 0.2622 -0.3005
vn 0.9724 0.2330 0.0000
vn 0.5328 0.4659 -0.7064
vn 0.7609 0.3446 -0.5497
vn 0.5287 -0.4706 -0.7064
vn 0.2863 0.2838 -0.9152
vn 0.5287 -0.4706 0.7064
vn 0.2863 0.2838 0.9152
vn 0.7579 -0.3512 0.5497
vn 0.9147 -0.2702 0.3005
vn 0.6585 0.6528 0.3743
vn 0.5105 0.5061 0.6952
vn 0.9704 -0.2415 0.0000
vn 0.9147 -0.2702 -0.3005
vn 0.6585 0.6528 -0.3743
vn 0.7102 0.7040 0.0000
vn 0.7579 -0.3512 -0.5497
vn 0.5105 0.5061 -0.6952
vn 0.3586 0.8551 0.3743
vn 0.2780 0.6629 0.6952
vn 0.3586 0.8551 -0.3743
vn 0.1559 0.3717 -0.9152
vn 0.2780 0.6629 -0.6952
vn 0.1559 0.3717 0.9152
vn 0.0031 0.7188 0.6952
vn 0.0017 0.4031 0.9152
vn 0.0043 1.0000 0.0000
vn 0.0040 0.9272 0.3743
vn 0.0031 0.7188 -0.6952
vn 0.0040 0.9272 -0.3743
vn 0.0017 0.4031 -0.9152
vn -0.3786 0.9255 0.0000
vn -0.3511 0.8582 0.3743
vn -0.2722 0.6653 -0.6952
vn -0.3511 0.8582 -0.3743
vn -0.1526 0.3731 -0.9152
vn -0.1526 0.3731 0.9152
vn -0.2722 0.6653 0.6952
vn -0.2838 0.2863 0.9152
vn -0.6528 0.6585 0.3743
vn -0.5061 0.5105 0.6952
vn -0.6528 0.6585 -0.3743
vn -0.7040 0.7102 0.0000
vn -0.2838 0.2863 -0.9152
vn -0.5061 0.5105 -0.6952
vn -0.8551 0.3586 -0.3743
vn -0.9222 0.3867 0.0000
vn -0.3717 0.1559 -0.9152
vn -0.6629 0.2780 -0.6952
vn -0.6629 0.2780 0.6952
vn -0.3717 0.1559 0.9152
vn -0.8551 0.3586 0.3743
vn -0.7188 0.0031 0.6952
vn -0.4031 0.0017 0.9152
vn -1.0000 0.0043 0.0000
vn -0.9272 0.0040 0.3743
vn -0.7188 0.0031 -0.6952
vn -0.9272 0.0040 -0.3743
vn -0.4031 0.0017 -0.9152
vn -0.6653 -0.2722 -0.6952
vn -0.8582 -0.3511 -0.3743
vn -0.3731 -0.1526 -0.9152
vn -0.3731 -0.1526 0.9152
vn -0.8582 -0.3511 0.3743
vn -0.6653 -0.2722 0.6952
vn -0.9255 -0.3786 0.0000
vn -0.2863 -0.2838 0.9152
vn -0.6585 -0.6528 0.3743
vn -0.5105 -0.5061 0.6952
vn -0.6585 -0.6528 -0.3743
vn -0.7102 -0.7040 0.0000
vn -0.2863 -0.2838 -0.9152
vn -0.5105 -0.5061 -0.6952
vn -0.1559 -0.3717 -0.9152
vn -0.2780 -0.6629 -0.6952
vn -0.2780 -0.6629 0.6952
vn -0.1559 -0.3717 0.9152
vn -0.3867 -0.9222 0.0000
vn -0.3586 -0.8551 0.3743
vn -0.3586 -0.8551 -0.3743
vn -0.0031 -0.7188 0.6952
vn -0.0017 -0.4031 0.9152
vn -0.0043 -1.0000 0.0000
vn -0.0040 -0.9272 0.3743
vn -0.0031 -0.7188 -0.6952
vn -0.0040 -0.9272 -0.3743
vn -0.0017 -0.4031 -0.9152
usemtl Material.001
s off
f 108/1/1 109/2/1 19/3/1 20/4/1
f 109/2/1 110/5/1 47/6/1 19/3/1
f 24/7/1 108/1/1 22/8/1 23/9/1
f 25/10/1 69/11/1 110/5/1 109/2/1
f 24/7/1 25/10/1 109/2/1 108/1/1
f 12/12/2 112/13/2 111/14/2 13/15/2
f 22/8/1 108/1/1 20/4/1 21/16/1
f 13/15/2 111/14/2 15/17/2 14/18/2
f 47/19/2 110/20/2 112/13/2 12/12/2
f 15/17/2 111/14/2 17/21/2 16/22/2
f 112/13/2 110/20/2 69/23/2 18/24/2
f 111/14/2 112/13/2 18/24/2 17/21/2
s 1
f 3/25/3 106/26/1 8/27/4 9/28/5
f 2/29/6 1/30/7 6/31/8 7/32/9
f 105/33/10 47/34/11 5/35/12
f 69/36/13 4/37/14 11/38/15
f 107/39/16 3/25/3 9/28/5 10/40/17
f 106/26/1 2/29/6 7/32/9 8/27/4
f 1/30/7 105/33/10 5/35/12 6/31/8
f 4/37/14 107/39/16 10/40/17 11/38/15
f 69/41/13 11/42/15 18/43/18
f 10/44/17 9/45/5 16/46/19 17/47/20
f 8/48/4 7/49/9 14/50/21 15/51/22
f 6/52/8 5/53/12 12/54/23 13/55/24
f 11/42/15 10/44/17 17/47/20 18/43/18
f 9/45/5 8/48/4 15/51/22 16/46/19
f 7/49/9 6/52/8 13/55/24 14/50/21
f 5/53/12 47/56/11 12/54/23
f 19/57/25 47/58/11 26/59/26
f 69/60/13 25/61/27 32/62/28
f 24/63/29 23/64/30 30/65/31 31/66/32
f 22/67/33 21/68/34 28/69/35 29/70/36
f 20/71/37 19/57/25 26/59/26 27/72/38
f 25/61/27 24/63/29 31/66/32 32/62/28
f 23/64/30 22/67/33 29/70/36 30/65/31
f 21/68/34 20/71/37 27/72/38 28/69/35
f 31/73/32 30/74/31 37/75/39 38/76/40
f 29/77/36 28/78/35 35/79/41 36/80/2
f 27/81/38 26/82/26 33/83/42 34/84/43
f 32/85/28 31/73/32 38/76/40 39/86/44
f 30/74/31 29/77/36 36/80/2 37/75/39
f 28/78/35 27/81/38 34/84/43 35/79/41
f 26/82/26 47/87/11 33/83/42
f 69/88/13 32/85/28 39/86/44
f 39/89/44 38/90/40 45/91/45 46/92/46
f 37/93/39 36/94/2 43/95/47 44/96/48
f 35/97/41 34/98/43 41/99/49 42/100/50
f 33/101/42 47/102/11 40/103/51
f 69/104/13 39/89/44 46/92/46
f 38/90/40 37/93/39 44/96/48 45/91/45
f 36/94/2 35/97/41 42/100/50 43/95/47
f 34/98/43 33/101/42 40/103/51 41/99/49
f 44/105/48 43/106/47 51/107/52 52/108/53
f 42/109/50 41/110/49 49/111/54 50/112/55
f 40/113/51 47/114/11 48/115/56
f 69/116/13 46/117/46 54/118/57
f 45/119/45 44/105/48 52/108/53 53/120/58
f 43/106/47 42/109/50 50/112/55 51/107/52
f 41/110/49 40/113/51 48/115/56 49/111/54
f 46/117/46 45/119/45 53/120/58 54/118/57
f 69/121/13 54/122/57 61/123/59
f 53/124/58 52/125/53 59/126/60 60/127/61
f 51/128/52 50/129/55 57/130/62 58/131/63
f 49/132/54 48/133/56 55/134/64 56/135/65
f 54/122/57 53/124/58 60/127/61 61/123/59
f 52/125/53 51/128/52 58/131/63 59/126/60
f 50/129/55 49/132/54 56/135/65 57/130/62
f 48/133/56 47/136/11 55/134/64
f 58/137/63 57/138/62 64/139/66 65/140/67
f 56/141/65 55/142/64 62/143/68 63/144/69
f 61/145/59 60/146/61 67/147/70 68/148/71
f 59/149/60 58/137/63 65/140/67 66/150/72
f 57/138/62 56/141/65 63/144/69 64/139/66
f 55/142/64 47/151/11 62/143/68
f 69/152/13 61/145/59 68/148/71
f 60/146/61 59/149/60 66/150/72 67/147/70
f 68/153/71 67/154/70 75/155/73 76/156/74
f 66/157/72 65/158/67 73/159/75 74/160/76
f 64/161/66 63/162/69 71/163/77 72/164/78
f 62/165/68 47/166/11 70/167/79
f 69/168/13 68/153/71 76/156/74
f 67/154/70 66/157/72 74/160/76 75/155/73
f 65/158/67 64/161/66 72/164/78 73/159/75
f 63/162/69 62/165/68 70/167/79 71/163/77
f 72/169/78 71/170/77 78/171/80 79/172/81
f 70/173/79 47/174/11 77/175/82
f 69/176/13 76/177/74 83/178/83
f 75/179/73 74/180/76 81/181/84 82/182/85
f 73/183/75 72/169/78 79/172/81 80/184/86
f 71/170/77 70/173/79 77/175/82 78/171/80
f 76/177/74 75/179/73 82/182/85 83/178/83
f 74/180/76 73/183/75 80/184/86 81/181/84
f 69/185/13 83/186/83 90/187/87
f 82/188/85 81/189/84 88/190/88 89/191/89
f 80/192/86 79/193/81 86/194/90 87/195/91
f 78/196/80 77/197/82 84/198/92 85/199/93
f 83/186/83 82/188/85 89/191/89 90/187/87
f 81/189/84 80/192/86 87/195/91 88/190/88
f 79/193/81 78/196/80 85/199/93 86/194/90
f 77/197/82 47/200/11 84/198/92
f 85/201/93 84/202/92 91/203/94 92/204/95
f 90/205/87 89/206/89 96/207/96 97/208/97
f 88/209/88 87/210/91 94/211/98 95/212/99
f 86/213/90 85/201/93 92/204/95 93/214/100
f 84/202/92 47/215/11 91/203/94
f 69/216/13 90/205/87 97/208/97
f 89/206/89 88/209/88 95/212/99 96/207/96
f 87/210/91 86/213/90 93/214/100 94/211/98
f 97/217/97 96/218/96 103/219/101 104/220/102
f 95/221/99 94/222/98 101/223/103 102/224/104
f 93/225/100 92/226/95 99/227/105 100/228/106
f 91/229/94 47/230/11 98/231/107
f 69/232/13 97/217/97 104/220/102
f 96/218/96 95/221/99 102/224/104 103/219/101
f 94/222/98 93/225/100 100/228/106 101/223/103
f 92/226/95 91/229/94 98/231/107 99/227/105
f 98/233/107 47/234/11 105/235/10
f 69/236/13 104/237/102 4/238/14
f 103/239/101 102/240/104 3/241/3 107/242/16
f 101/243/103 100/244/106 2/245/6 106/246/1
f 99/247/105 98/233/107 105/235/10 1/248/7
f 104/237/102 103/239/101 107/242/16 4/238/14
f 102/240/104 101/243/103 106/246/1 3/241/3
f 100/244/106 99/247/105 1/248/7 2/245/6
